/* XPM */
static char * max_xpm[] = {
"16 16 255 2",
"  	c #0460D9",
". 	c #1A6BD2",
"+ 	c #3C8BDF",
"@ 	c #458FE0",
"# 	c #488FDF",
"$ 	c #448EDF",
"% 	c #458EE3",
"& 	c #468EE4",
"* 	c #478EE2",
"= 	c #4C8CE0",
"- 	c #4B8CE0",
"; 	c #4B8EDE",
"> 	c #4B8EDA",
", 	c #428BDD",
"' 	c #1868DB",
") 	c #0658D8",
"! 	c #1962C7",
"~ 	c #7EB2E6",
"{ 	c #92C1E5",
"] 	c #92B9DA",
"^ 	c #90B2D4",
"/ 	c #89B1D5",
"( 	c #89AEDE",
"_ 	c #85A8DB",
": 	c #87ABDA",
"< 	c #8AA7DE",
"[ 	c #7D9ED7",
"} 	c #81A7D6",
"| 	c #7A9FC4",
"1 	c #77A9D6",
"2 	c #6AA7F4",
"3 	c #1A5BD3",
"4 	c #4A87DD",
"5 	c #9BBEE9",
"6 	c #8EADF4",
"7 	c #8EA6F2",
"8 	c #8399E6",
"9 	c #7190DC",
"0 	c #6E8CE7",
"a 	c #6987E5",
"b 	c #6888DC",
"c 	c #647EDA",
"d 	c #5F81E4",
"e 	c #4F7BDC",
"f 	c #4470CB",
"g 	c #2F62C2",
"h 	c #689ADD",
"i 	c #4975C4",
"j 	c #4982D7",
"k 	c #9CB8E7",
"l 	c #8AA1F7",
"m 	c #94A6FB",
"n 	c #8D9EF5",
"o 	c #7690E2",
"p 	c #718BE4",
"q 	c #6D89DF",
"r 	c #6684CC",
"s 	c #6982C8",
"t 	c #587CCE",
"u 	c #4A7BE0",
"v 	c #4076E8",
"w 	c #2D62DB",
"x 	c #5E89D5",
"y 	c #617EC3",
"z 	c #4A88DE",
"A 	c #8EAFDC",
"B 	c #88A0F4",
"C 	c #8899EC",
"D 	c #C4D4FA",
"E 	c #D2E9FA",
"F 	c #D3E9F9",
"G 	c #D2E9F6",
"H 	c #D1E8F2",
"I 	c #D3E7F1",
"J 	c #C8E4F2",
"K 	c #A3D0F2",
"L 	c #3168E2",
"M 	c #2C60E6",
"N 	c #6B8FE0",
"O 	c #677DBD",
"P 	c #438BE1",
"Q 	c #87B1D6",
"R 	c #7292DD",
"S 	c #7993CA",
"T 	c #D7ECF3",
"U 	c #E9FFFF",
"V 	c #E8FFFC",
"W 	c #EAFFFA",
"X 	c #EBFDFF",
"Y 	c #E1F8FF",
"Z 	c #BDE1F8",
"` 	c #3766E1",
" .	c #2C5AE1",
"..	c #6A8FDD",
"+.	c #6381B8",
"@.	c #4088DE",
"#.	c #84AFD6",
"$.	c #688BE3",
"%.	c #6F8CD7",
"&.	c #C6DFF2",
"*.	c #88A5E4",
"=.	c #7D97E0",
"-.	c #7E95E7",
";.	c #7A93E3",
">.	c #728FCF",
",.	c #718DC5",
"'.	c #B2D3F1",
").	c #3A66E7",
"!.	c #305BE2",
"~.	c #678FD5",
"{.	c #5882AD",
"].	c #4786E0",
"^.	c #82A8D3",
"/.	c #6082E8",
"(.	c #6587E2",
"_.	c #B7DAF4",
":.	c #537FE9",
"<.	c #4C78F6",
"[.	c #4974FF",
"}.	c #3B68FB",
"|.	c #386DE6",
"1.	c #3766C7",
"2.	c #A3CFF2",
"3.	c #2B62E8",
"4.	c #2A5DE0",
"5.	c #6695D6",
"6.	c #5487AB",
"7.	c #4F85E5",
"8.	c #82A3D0",
"9.	c #597AE4",
"0.	c #5C82D9",
"a.	c #B0DAF1",
"b.	c #4C85E6",
"c.	c #4482F3",
"d.	c #3A7BFA",
"e.	c #3578FF",
"f.	c #2670EE",
"g.	c #3271D4",
"h.	c #9AD2F3",
"i.	c #2369EC",
"j.	c #235FE1",
"k.	c #5E8FD0",
"l.	c #5588AC",
"m.	c #5087ED",
"n.	c #7DA0D4",
"o.	c #5373EC",
"p.	c #587DDD",
"q.	c #AFD9F1",
"r.	c #4E87E2",
"s.	c #4885E8",
"t.	c #3F80EE",
"u.	c #397CF4",
"v.	c #367EE6",
"w.	c #3677C1",
"x.	c #96D3EF",
"y.	c #186DEB",
"z.	c #155BDF",
"A.	c #5E90D5",
"B.	c #5B87B2",
"C.	c #488CF2",
"D.	c #749DD5",
"E.	c #496BEC",
"F.	c #5679DD",
"G.	c #B1D6F0",
"H.	c #5785D3",
"I.	c #4F7FC9",
"J.	c #4F7FCC",
"K.	c #4A7BD3",
"L.	c #4476CC",
"M.	c #4676B2",
"N.	c #9AD4EF",
"O.	c #116AED",
"P.	c #0E57E6",
"Q.	c #5F8FDB",
"R.	c #6087B5",
"S.	c #488CF6",
"T.	c #6B9CD4",
"U.	c #3C65E5",
"V.	c #496EE2",
"W.	c #A8CEF4",
"X.	c #A5D1F1",
"Y.	c #ACD6F2",
"Z.	c #ABD5F3",
"`.	c #A8D4F3",
" +	c #A5D5F5",
".+	c #A0D1F2",
"++	c #91CDF6",
"@+	c #0C68F1",
"#+	c #0D5BE8",
"$+	c #5687D2",
"%+	c #6087C0",
"&+	c #5A8DF9",
"*+	c #6198C9",
"=+	c #3062D7",
"-+	c #3866F4",
";+	c #3B6EF0",
">+	c #3975D6",
",+	c #3772EA",
"'+	c #3571F2",
")+	c #3074EA",
"!+	c #2573F5",
"~+	c #226DEA",
"{+	c #1966E3",
"]+	c #0864EE",
"^+	c #0257CD",
"/+	c #528CCD",
"(+	c #5C87D2",
"_+	c #538DEB",
":+	c #69A9D4",
"<+	c #1A56B9",
"[+	c #2257DC",
"}+	c #265CE0",
"|+	c #2562C9",
"1+	c #245FDF",
"2+	c #225DEA",
"3+	c #1F5FE0",
"4+	c #195DE7",
"5+	c #1C5BDF",
"6+	c #1C5BDD",
"7+	c #054FD5",
"8+	c #0B55C0",
"9+	c #5E94D0",
"0+	c #638FDC",
"a+	c #286BE5",
"b+	c #6AB0F7",
"c+	c #60A0DB",
"d+	c #5791DA",
"e+	c #5990D9",
"f+	c #5B92CD",
"g+	c #5B91D6",
"h+	c #5B90DB",
"i+	c #5B90D6",
"j+	c #5C8DD8",
"k+	c #5988CF",
"l+	c #5687CD",
"m+	c #5085D3",
"n+	c #5A96DA",
"o+	c #6BA9FA",
"p+	c #2564DC",
"q+	c #1058E8",
"r+	c #266DE3",
"s+	c #4A8AE0",
"t+	c #528DE3",
"u+	c #538ADA",
"v+	c #558DCD",
"w+	c #568DCA",
"x+	c #578CCA",
"y+	c #578CC7",
"z+	c #5A88CA",
"A+	c #5683C3",
"B+	c #5487CB",
"C+	c #518CDF",
"D+	c #4282DA",
"E+	c #1E68E2",
"F+	c #095AE7",
"  . + @ # $ % & * = - ; > , ' ) ",
"! ~ { ] ^ / ( _ : < [ } | 1 2 3 ",
"4 5 6 7 8 9 0 a b c d e f g h i ",
"j k l m n o p q r s t u v w x y ",
"z A B C D E F G H I J K L M N O ",
"P Q R S T U U V W X Y Z `  ...+.",
"@.#.$.%.&.*.=.-.;.>.,.'.).!.~.{.",
"].^./.(._.:.<.[.}.|.1.2.3.4.5.6.",
"7.8.9.0.a.b.c.d.e.f.g.h.i.j.k.l.",
"m.n.o.p.q.r.s.t.u.v.w.x.y.z.A.B.",
"C.D.E.F.G.H.I.J.K.L.M.N.O.P.Q.R.",
"S.T.U.V.W.X.Y.Z.`. +.+++@+#+$+%+",
"&+*+=+-+;+>+,+'+)+!+~+{+]+^+/+(+",
"_+:+<+[+}+|+1+2+3+4+5+6+7+8+9+0+",
"a+b+c+d+e+f+g+h+i+j+k+l+m+n+o+p+",
"q+r+s+t+u+v+w+x+y+z+A+B+C+D+E+F+"};
